<?xml version="1.0" encoding="UTF-8"?><svg id="Layer_2" xmlns="http://www.w3.org/2000/svg" viewBox="0 0 23.67 19.62"><g id="_ëîé_1"><polygon points="10.09 0 7.05 4.58 4.17 0 10.09 0"/><polygon points="19.59 0 16.67 4.48 13.62 0 19.59 0"/><polygon points="16.28 5.36 11.84 19.62 7.39 5.36 16.28 5.36"/><polygon points="13.01 0 16.32 4.86 7.47 4.86 10.69 0 13.01 0"/><polygon points="3.58 0 6.63 4.86 0 4.86 3.57 0 3.58 0"/><polygon points="11.19 19.26 .18 5.36 6.86 5.36 11.19 19.26"/><polygon points="23.49 5.36 12.48 19.25 16.81 5.36 23.49 5.36"/><polygon points="20.22 0 23.67 4.86 17.02 4.86 20.19 0 20.22 0"/></g></svg>