<?xml version="1.0" encoding="UTF-8"?><svg id="Layer_2" xmlns="http://www.w3.org/2000/svg" viewBox="0 0 33.12 29.19"><defs><style>.cls-1{fill:#0c0c0c;}.cls-2{fill:#373a47;}</style></defs><g id="_ëîé_1"><path d="m14.95,28.11c.06.05.12.11.17.15h0c-.51.52-1.33.54-1.81.06-.48-.48-.46-1.29.04-1.8l1.59,1.59Z"/><path d="m11.18,24.34l1.75,1.75c-.28.27-.62.43-.98.45-.35.02-.67-.09-.9-.32-.23-.23-.34-.55-.32-.9.02-.36.18-.71.45-.98Z"/><path d="m9.06,22.21l1.75,1.75c-.5.5-1.3.5-1.78.03-.48-.47-.46-1.27.03-1.78Z"/><path d="m6.99,21.78c-.48-.48-.51-1.25-.05-1.7h0s.95.98.95.98c.05.06.22.22.22.22l.57.57c-.45.45-1.21.42-1.69-.06Z"/><path d="m27.32,15.05l-1.41,1.45s-.07.09-.07.14l-.18,1.21-1.56,1.57-4.39-4.34c1.25-.11,2.23-1.16,2.23-2.44,0-.15-.11-.26-.26-.26s-.26.12-.26.26c0,1.06-.86,1.93-1.93,1.93s-1.93-.87-1.93-1.93v-1.71c0-.1-.06-.18-.14-.23-.05-.03-.11-.04-.16-.03h-1.69c-.07,0-.14.03-.18.07l-2.59,2.58c-.41.41-1.09.41-1.5,0-.41-.42-.41-1.09,0-1.5l3.27-3.27s.04-.05.06-.08h6.12l6.57,6.57Z"/><path d="m4.83,15.1c-.11-.09-.27-.09-.37.02l-.09-.09,6.66-6.67c.05.07.12.11.21.11h2.67l-2.98,2.98c-.62.62-.62,1.61,0,2.23.62.62,1.62.62,2.24,0l.3-.3.78.79c-.07.08-.1.19-.05.29-.01.08.01.16.07.23l8.59,8.59c.56.56.62,1.41.14,1.89-.23.23-.55.34-.9.32-.36-.02-.72-.19-.99-.46l-.86-.85-7.73-7.73s-.01,0-.02-.02c0,0-.02-.01-.02-.02l-.06-.07c-.1-.11-.27-.11-.37,0-.1.1-.1.27,0,.37l.1.1,7.74,7.74.09.09c.19.23.29.51.3.81,0,.33-.12.65-.35.88-.48.48-1.28.47-1.79-.04l-.69-.68-7.15-7.15-.08-.09c-.1-.1-.27-.1-.37,0-.1.1-.1.27,0,.37l.07.07s.01.02.01.02l7.23,7.23c.17.21.26.47.25.75,0,.33-.14.64-.38.87-.48.48-1.24.51-1.7.05l-7.24-7.24s-.08-.06-.12-.06l-1.11-1.26v-2.15c0-.07-.03-.15-.09-.2l-1.94-1.73Z"/><path d="m14.62,14.18c-.1-.1-.27-.1-.37,0l-.78-.79,2.21-2.19h1.36v1.44c0,1.16.81,2.14,1.9,2.39,0,.02.03.04.05.06l5.38,5.33c.51.52.54,1.32.05,1.8-.48.48-1.29.46-1.81-.05l-7.99-7.99Z"/><polygon class="cls-1" points=".16 12.67 3.18 15.66 12.41 6.39 8.62 2.33 .16 12.67"/><polygon points="19.53 6.62 25.92 .27 32.89 11.83 28.68 15.85 19.53 6.62"/><path class="cls-2" d="m7.89,22.68c-.45,0-.91-.18-1.27-.53-.69-.68-.71-1.78-.05-2.44l.37.37c-.46.46-.44,1.22.05,1.7.48.48,1.24.5,1.7.05l.37.37c-.32.32-.75.48-1.18.48Z"/><path class="cls-2" d="m9.89,24.87c-.45,0-.89-.17-1.23-.51-.69-.69-.67-1.82.03-2.53l.37.37c-.5.5-.52,1.3-.03,1.79.48.48,1.28.47,1.79-.04l.37.37c-.36.36-.83.54-1.3.54Z"/><path class="cls-2" d="m11.86,27.07c-.46,0-.87-.17-1.18-.48-.34-.34-.51-.8-.48-1.3.03-.49.25-.96.62-1.33l.37.37c-.27.28-.44.63-.46.99-.02.35.09.67.32.9.23.23.55.34.9.32.36-.02.72-.19.99-.46l.37.37c-.37.36-.84.58-1.33.62-.04,0-.08,0-.12,0Z"/><path class="cls-2" d="m14.17,29.19c-.45,0-.89-.17-1.22-.5-.69-.69-.66-1.83.05-2.55l.37.37c-.51.51-.54,1.32-.06,1.81.48.48,1.29.46,1.81-.06l.37.37c-.37.37-.85.56-1.33.56Z"/><path class="cls-2" d="m16.13,28.59c-.43,0-.85-.16-1.18-.48l-7.24-7.24c-.1-.1-.1-.27,0-.37.1-.1.27-.1.37,0l7.23,7.24c.46.46,1.22.43,1.7-.05.24-.23.37-.54.38-.87,0-.32-.11-.62-.33-.84l-7.23-7.23c-.1-.1-.1-.27,0-.37.1-.1.27-.1.37,0l7.23,7.24c.32.32.49.75.48,1.22-.01.46-.2.9-.53,1.23-.35.35-.81.53-1.27.53Z"/><path class="cls-2" d="m19.06,27.21c-.47,0-.93-.18-1.3-.54l-7.84-7.84c-.1-.1-.1-.27,0-.37.1-.1.27-.1.37,0l7.84,7.84c.5.5,1.3.52,1.79.04.23-.23.36-.55.35-.88,0-.34-.14-.66-.39-.9l-7.84-7.84c-.1-.1-.1-.27,0-.37.1-.1.27-.1.37,0l7.84,7.84c.34.34.53.79.54,1.26,0,.48-.17.93-.51,1.26-.34.33-.78.5-1.23.5Z"/><path class="cls-2" d="m22.19,26.03s-.08,0-.12,0c-.49-.03-.96-.25-1.33-.62l-8.59-8.59c-.1-.1-.1-.27,0-.37.1-.1.27-.1.37,0l8.59,8.59c.28.28.63.44.99.47.35.02.67-.09.9-.32.48-.48.42-1.33-.14-1.89l-8.59-8.59c-.1-.1-.1-.27,0-.37.1-.1.27-.1.37,0l8.59,8.59c.76.77.83,1.94.14,2.63-.31.31-.73.48-1.18.48Z"/><path class="cls-2" d="m23.57,23.09c-.47,0-.95-.19-1.32-.56l-7.99-7.99c-.1-.1-.1-.27,0-.37.1-.1.27-.1.37,0l7.99,7.99c.51.52,1.32.54,1.81.06.48-.48.46-1.29-.06-1.81l-5.37-5.33c-.11-.1-.11-.27,0-.37.1-.1.27-.1.37,0l5.38,5.33c.72.72.75,1.86.06,2.55-.33.33-.78.5-1.22.5Z"/><path class="cls-2" d="m8.12,21.27c-.07,0,.08,0-.04-.04l-1.75-1.77c.02-.07,0-.13,0-.19v-2.13l-2.25-2.01c-.11-.09.03-.11.12-.22.1-.11.16-.22.27-.13l2.29,2.04c.05.05.09.12.09.2v2.15l1.53,1.63c.1.11.02.3-.09.4-.05.04-.11.07-.17.07Z"/><path class="cls-2" d="m3.22,16.07h0c-.07,0-.14-.03-.19-.08L.07,12.92c-.1-.1-.1-.27,0-.37.1-.1.27-.1.37,0l2.78,2.87L12.2,6.46l-4-4c-.1-.1-.1-.27,0-.37.1-.1.27-.1.37,0l4.19,4.19c.1.1.1.27,0,.37L3.41,15.99s-.12.08-.19.08Z"/><path class="cls-2" d="m28.67,16.3c-.07,0-.13-.03-.18-.08l-9.34-9.34s-.08-.11-.08-.18.03-.14.08-.19L25.68.08c.1-.1.27-.1.37,0,.1.1.1.27,0,.37l-6.34,6.25,8.97,8.97,4-4c.1-.1.27-.1.37,0,.1.1.1.27,0,.37l-4.19,4.19s-.12.08-.19.08Z"/><path class="cls-2" d="m24.12,20.02c-.07,0-.14-.03-.18-.08-.1-.1-.1-.27,0-.37l1.72-1.73.18-1.21c0-.06.03-.1.07-.14l1.53-1.57c.1-.11.27-.11.37,0,.1.1.1.27,0,.37l-1.47,1.51-.18,1.22c0,.05-.03.11-.07.15l-1.79,1.78c-.05.05-.11.08-.18.08Z"/><path class="cls-2" d="m20.77,8.47h-9.53c-.14,0-.26-.12-.26-.26s.12-.26.26-.26h9.53c.14,0,.26.12.26.26s-.12.26-.26.26Z"/><path class="cls-2" d="m19.49,15.09c-1.35,0-2.46-1.1-2.46-2.45v-1.44h-1.36l-2.51,2.5c-.61.62-1.62.62-2.24,0-.62-.62-.62-1.62,0-2.24l3.27-3.27c.1-.1.27-.1.37,0,.1.1.1.27,0,.37l-3.27,3.27c-.41.41-.41,1.08,0,1.5.41.41,1.09.41,1.5,0l2.59-2.58s.12-.08.19-.08h1.68c.05,0,.11,0,.16.03.08.05.14.13.14.22v1.71c0,1.06.87,1.93,1.93,1.93s1.93-.87,1.93-1.93c0-.14.12-.26.26-.26s.26.12.26.26c0,1.35-1.1,2.45-2.45,2.45Z"/><path class="cls-2" d="m2.39,11.9c-.2-.04-.33-.22-.3-.41.03-.19.2-.33.41-.31.2.02.34.21.31.41-.03.2-.22.34-.42.3Z"/><path class="cls-2" d="m2.45,12.12s-.07,0-.1,0c-.31-.06-.52-.35-.47-.66.04-.28.29-.49.58-.49h.06c.16.02.29.1.39.22.1.12.14.28.11.44-.04.29-.28.49-.57.49Zm.02-.72c-.09,0-.16.05-.17.12-.01.08.04.15.12.17h.02c.07,0,.13-.05.14-.13,0-.04,0-.08-.03-.11-.02-.03-.05-.05-.09-.05h0Z"/><path class="cls-2" d="m29.27,12.84c-.2-.04-.33-.22-.3-.41.03-.19.21-.33.41-.3.2.02.34.21.31.41-.03.2-.22.34-.42.3Z"/><path class="cls-2" d="m29.33,13.06s-.07,0-.1,0c-.31-.06-.52-.35-.47-.66.04-.28.29-.49.58-.49h.07c.15.02.29.1.39.22.1.13.14.28.11.44-.05.29-.28.5-.57.5Zm.02-.72c-.09,0-.16.05-.17.12-.01.08.04.15.12.16h.02c.07,0,.13-.05.14-.12,0-.04,0-.08-.03-.11-.02-.03-.06-.05-.09-.05h0Z"/></g></svg>