<?xml version="1.0" encoding="UTF-8"?><svg id="Layer_2" xmlns="http://www.w3.org/2000/svg" viewBox="0 0 2000 1265.93"><g id="Layer_1-2"><path d="m1556.88,744.84c-27.05-21.36-61.46-47.91-93.98-72.72-44.92-33.36-106.64-77.76-187.27-132.68-9.83-6.7-20.25-13.5-30.91-20.34-5.69-3.63-11.32-7.2-16.98-10.76-101.03-63.04-224.88-126.63-256.15-142.52l-74.83,23.79c-19.75,29.97-104.74,147.03-232.59,156.92-7.03.73-13.99,1.1-20.43,1.1-28.84,0-48.72-7.81-60.84-23.96-14.45-19.23-15.58-47.55-3.52-89.05.34-1.17.78-2.32,1.33-3.42,23.63-47.61,71.99-116.33,114.18-174.62-8.13-1.25-16.62-2.5-25.33-3.81-50.77-7.49-103.24-15.26-130.97-30.96-12.04-6.85-31.02-18.36-51.76-31.21l-256.18,454.96,21.54,23.99c.88,1.07,25.91,32.2,61.14,76.23l.66-.88c17.27-23.29,44.42-36.65,74.51-36.65,25.24,0,50.61,9.43,71.44,26.61,19.76,16.17,33.14,37.48,39.67,60l24.14-32.9c17.29-23.38,44.46-36.74,74.57-36.74,25.27,0,50.63,9.43,71.43,26.61,35.6,29.21,50.74,75.07,41.55,114.62,1.57-.06,3.11-.27,4.7-.27,25.22,0,50.6,9.46,71.44,26.61,35.14,28.96,50.38,74.07,41.93,113.25,2.84-.27,5.68-.46,8.59-.46,25.21,0,50.58,9.43,71.44,26.55,46.55,38.3,58.24,105.1,26.02,148.87l-16.59,22.4c74.68,25.7,118.18,33.2,118.91,33.36.58.09,1.19.24,1.74.34,21.27,5.37,84.32,15.11,120.42-4.3,26.09-14.01,45.9-37.6,57.86-54.63l-194.95-94.08c-10.19-4.94-14.51-17.24-9.55-27.47,4.93-10.25,17.21-14.53,27.5-9.58l206.71,99.82c1.57-.12,3.1-.27,4.71,0,14.14,2.29,55.65,5.4,76.48-8.21,25.38-16.63,30.7-55.6,31.74-74.55l-250.99-145.33c-9.84-5.71-13.2-18.31-7.49-28.14,5.71-9.86,18.25-13.21,28.14-7.51l257.32,149.02c17.98,1.19,59.8.67,78.46-14.4,33.23-27.04,28.99-69.7,26.52-83.77l-297.73-178.74c-9.75-5.83-12.89-18.52-7.05-28.23,5.86-9.77,18.55-12.88,28.26-7.05l313.37,188.11c21.67,5.59,71.4,12.7,95.35-31.22,17.85-32.78,11.35-62.96-19.64-92.41l-48.05-39.58Z"/><path d="m662.61,876.34c19.53-26.55,10.99-68.12-19.01-92.74-13.47-11.14-29.54-17.24-45.27-17.24-17.2,0-31.91,7.11-41.44,19.93l-132.12,180.11c-19.49,26.4-10.96,67.96,18.98,92.71,13.44,11.08,29.53,17.21,45.24,17.21,17.2,0,31.92-7.08,41.47-19.99l.23-.3,131.93-179.69Z"/><path d="m761.27,924.56c-13.47-11.08-29.56-17.21-45.27-17.21-13.43,0-25.25,4.49-34.36,12.57-2.52,2.26-108.96,147.67-108.96,147.67-.82,1.1-1.31,2.41-2.04,3.57-1.8,2.93-3.42,5.95-4.62,9.12-9.72,25.76.05,58.96,25.59,80.02,13.52,11.14,29.63,17.24,45.36,17.24,17.18,0,31.85-7.11,41.34-19.96l102-140.26c19.5-26.49,10.94-68.05-19.03-92.77Z"/><path d="m883.25,1063.97c-13.49-11.11-29.59-17.24-45.29-17.24-17.17,0-31.86,7.11-41.38,20.02,0,0-70.56,96.25-72.13,100.01-10.93,25.94-1.12,60.36,25.05,81.97,13.49,11.11,29.62,17.21,45.34,17.21,17.16,0,31.86-7.11,41.35-19.99l66.09-89.36c19.47-26.46,10.93-67.99-19.03-92.62Z"/><path d="m454.49,856.35c16.68-26.12,7.83-66.31-20.68-89.69-13.52-11.14-29.6-17.24-45.32-17.24-17.18,0-31.88,7.11-41.43,19.96l-42.16,56.98c-19.42,26.37-10.89,68.02,19.04,92.68,13.49,11.11,29.59,17.24,45.3,17.24,13.09,0,24.72-4.21,33.72-11.9,2.73-2.35,50.9-67.08,51.51-68.03Z"/><path d="m1408.53,203.64c-27.01-2.26-58.47-9.64-94.94-18.2-56.98-13.38-127.91-30.04-202.35-30.04l-5.13.02c-167.91,1.6-304.6,23.64-325.03,52.38-4.79,6.71-10.34,14.4-16.27,22.55-4.38,6.04-8.9,12.24-13.76,18.89-3.72,5.13-7.72,10.62-11.64,16.02-43.15,59.3-96.33,133.55-121.03,182.59-9.75,34.42-5.84,46.8-2.59,51.12,4.67,6.23,17.76,7.51,27.92,7.51,5.19,0,10.76-.34,16.77-.95,122.76-9.51,204.45-142.55,205.28-143.89,2.58-4.24,6.64-7.48,11.38-8.99l40.69-12.94,49.23-15.66c2.03-.64,4.15-.96,6.24-.96,3.16,0,6.3.73,9.18,2.17,1.66.84,146.96,73.55,264.33,146.49,8.36,5.2,16.6,10.37,24.6,15.56,9.43,6.09,18.59,12.12,27.34,18.1,79.04,53.86,139.68,97.35,184.45,130.51,65.86,48.75,96.99,74.84,99.09,76.58l.03.03,42.27,34.85c.15-.12.33-.18.46-.24,13.88-6.04,40.56-19.84,70.39-46.94,12.71-11.51,21.84-21.06,30.65-30.27,10.8-11.35,21.03-22.03,36.01-34.42.34-.29.7-.58,1.02-.86l-252.56-448.67c-35.08,12.21-71.15,20.22-102.04,17.67Z"/><path d="m485.68,108.73c3.83-6.84,1.72-15.82-4.58-19.65L337.82,1.71c-1.85-1.13-3.86-1.71-6-1.71-4.46,0-8.5,2.46-10.79,6.56L1.89,573.36c-3.8,6.78-1.66,15.76,4.67,19.64l143.23,87.36c5.63,3.42,13.44,1.1,16.83-4.88L485.68,108.73Z"/><path d="m1998.11,573.36L1678.98,6.62c-2.32-4.14-6.36-6.59-10.8-6.59-2.12,0-4.1.58-5.96,1.69l-143.26,87.37c-6.35,3.88-8.5,12.86-4.67,19.64l319.11,566.74c3.4,6.07,11.06,8.33,16.88,4.88l143.16-87.34c6.36-3.89,8.5-12.88,4.69-19.66Z"/></g></svg>